<svg xmlns="http://www.w3.org/2000/svg" viewBox="0 0 400 400">
  <!-- WiFi signals -->
  <path d="M200 80 C240 80, 280 100, 280 140" stroke="#2E8B8B" stroke-width="12" fill="none" stroke-linecap="round"/>
  <path d="M200 100 C230 100, 260 115, 260 135" stroke="#2E8B8B" stroke-width="10" fill="none" stroke-linecap="round"/>
  <path d="M200 120 C220 120, 240 125, 240 135" stroke="#2E8B8B" stroke-width="8" fill="none" stroke-linecap="round"/>
  
  <!-- Book 3D shape -->
  <path d="M120 140 L120 280 Q120 300, 140 300 L260 300 Q280 300, 280 280 L280 140 Q280 120, 260 120 L140 120 Q120 120, 120 140 Z" fill="#1B365D"/>
  
  <!-- Book spine -->
  <path d="M280 140 L300 130 L300 270 Q300 290, 280 300 L280 280 Q280 260, 280 140" fill="#0F2A47"/>
  
  <!-- Book pages -->
  <rect x="140" y="140" width="120" height="140" fill="white" rx="4"/>
  <line x1="160" y1="160" x2="240" y2="160" stroke="#1B365D" stroke-width="3"/>
  <line x1="160" y1="180" x2="240" y2="180" stroke="#1B365D" stroke-width="3"/>
  <line x1="160" y1="200" x2="240" y2="200" stroke="#1B365D" stroke-width="3"/>
  <line x1="160" y1="220" x2="220" y2="220" stroke="#1B365D" stroke-width="3"/>
  
  <!-- eLibrary text -->
  <text x="200" y="360" text-anchor="middle" font-family="Arial, sans-serif" font-size="48" font-weight="bold" fill="#1B365D">eLibrary</text>
</svg>